<?xml version="1.0" encoding="UTF-8"?>
<!DOCTYPE svg PUBLIC "-//W3C//DTD SVG 1.1//EN" "http://www.w3.org/Graphics/SVG/1.1/DTD/svg11.dtd">
<svg xmlns="http://www.w3.org/2000/svg" version="1.1" width="256px" height="256px" style="shape-rendering:geometricPrecision; text-rendering:geometricPrecision; image-rendering:optimizeQuality; fill-rule:evenodd; clip-rule:evenodd" xmlns:xlink="http://www.w3.org/1999/xlink">
<g><path style="opacity:0.955" fill="#ffac16" d="M 255.5,25.5 C 255.5,27.1667 255.5,28.8333 255.5,30.5C 254.167,30.8333 254.167,31.1667 255.5,31.5C 255.5,39.8333 255.5,48.1667 255.5,56.5C 254.694,57.9972 254.028,59.6639 253.5,61.5C 247.79,63.0415 242.123,64.7081 236.5,66.5C 219.562,68.5948 209.395,78.2614 206,95.5C 205.029,113.939 203.362,132.272 201,150.5C 196.418,169.432 185.918,184.265 169.5,195C 165.111,198.034 160.444,200.701 155.5,203C 152.215,203.759 149.215,205.092 146.5,207C 139.551,206.986 137.051,203.486 139,196.5C 147.384,191.927 155.217,187.427 162.5,183C 164.329,181.887 165.163,180.387 165,178.5C 147.072,165.481 127.239,161.648 105.5,167C 92.0926,171.037 79.4259,177.37 67.5,186C 56.6481,196.243 45.6481,206.243 34.5,216C 26.4689,223.697 18.8022,231.697 11.5,240C 6.46983,242.155 2.46983,240.988 -0.5,236.5C -0.5,234.833 -0.5,233.167 -0.5,231.5C 11.3111,213.421 20.6444,194.088 27.5,173.5C 15.2595,138.622 22.9261,109.122 50.5,85C 60.5109,78.2118 71.5109,73.5452 83.5,71C 102.139,69.7948 120.806,69.1281 139.5,69C 142.376,68.5621 145.043,67.5621 147.5,66C 157.979,57.8564 165.812,47.6897 171,35.5C 173.304,27.7423 176.471,20.409 180.5,13.5C 182.88,14.7936 185.38,15.7936 188,16.5C 208.746,14.5243 229.246,16.0243 249.5,21C 251.66,22.332 253.66,23.832 255.5,25.5 Z"/></g>
<g><path style="opacity:1" fill="#fffaf3" d="M 200.5,23.5 C 206.989,22.5536 212.656,24.2203 217.5,28.5C 218.428,29.7678 218.595,31.1011 218,32.5C 211.845,33.8364 205.678,33.6697 199.5,32C 196.83,28.8385 197.163,26.0052 200.5,23.5 Z"/></g>
<g><path style="opacity:0.859" fill="#feac15" d="M 113.5,167.5 C 121.507,167.334 129.507,167.5 137.5,168C 138.624,168.249 139.624,168.749 140.5,169.5C 136.489,173.303 131.989,177.303 127,181.5C 120.704,189.645 114.537,197.978 108.5,206.5C 113.952,209.794 118.952,213.794 123.5,218.5C 124.631,220.074 124.798,221.741 124,223.5C 119.903,229.704 115.236,230.037 110,224.5C 101.077,221.572 92.7437,216.906 85,210.5C 83.4889,199.878 83.1556,189.211 84,178.5C 93.4831,173.492 103.316,169.825 113.5,167.5 Z"/></g>
<g><path style="opacity:0.788" fill="#feac15" d="M 197.5,167.5 C 198.693,167.97 199.36,168.97 199.5,170.5C 197.79,187.145 196.29,203.812 195,220.5C 194.202,223.543 193.035,226.376 191.5,229C 188.833,229.667 186.167,229.667 183.5,229C 182.874,228.25 182.374,227.416 182,226.5C 181.212,214.167 180.879,201.834 181,189.5C 183,186.167 185.667,183.5 189,181.5C 192.107,176.944 194.94,172.277 197.5,167.5 Z"/></g>
</svg>
